<?xml version="1.0" encoding="UTF-8" standalone="no"?>
<!-- Created with Inkscape (http://www.inkscape.org/) -->

<svg
   xmlns:dc="http://purl.org/dc/elements/1.1/"
   xmlns:cc="http://creativecommons.org/ns#"
   xmlns:rdf="http://www.w3.org/1999/02/22-rdf-syntax-ns#"
   xmlns:svg="http://www.w3.org/2000/svg"
   xmlns="http://www.w3.org/2000/svg"
   xmlns:sodipodi="http://sodipodi.sourceforge.net/DTD/sodipodi-0.dtd"
   xmlns:inkscape="http://www.inkscape.org/namespaces/inkscape"
   width="410.0354"
   height="364.88651"
   id="svg2"
   version="1.1"
   inkscape:version="0.48.4 r9939"
   sodipodi:docname="ncmodel.pdf">
  <defs
     id="defs4">
    <marker
       inkscape:stockid="Arrow1Lend"
       orient="auto"
       refY="0"
       refX="0"
       id="Arrow1Lend"
       style="overflow:visible">
      <path
         id="path3945"
         d="M 0,0 5,-5 -12.5,0 5,5 0,0 z"
         style="fill-rule:evenodd;stroke:#000000;stroke-width:1pt"
         transform="matrix(-0.8,0,0,-0.8,-10,0)"
         inkscape:connector-curvature="0" />
    </marker>
    <inkscape:path-effect
       effect="spiro"
       id="path-effect4400"
       is_visible="true" />
    <inkscape:path-effect
       effect="skeletal"
       id="path-effect4390"
       is_visible="true"
       pattern="M 0,5 10,10 10,0 z"
       copytype="single_stretched"
       prop_scale="1"
       scale_y_rel="false"
       spacing="0"
       normal_offset="0"
       tang_offset="0"
       prop_units="false"
       vertical_pattern="false"
       fuse_tolerance="0" />
    <marker
       inkscape:stockid="Arrow2Mend"
       orient="auto"
       refY="0"
       refX="0"
       id="Arrow2Mend"
       style="overflow:visible">
      <path
         id="path3969"
         style="fill-rule:evenodd;stroke-width:0.625;stroke-linejoin:round"
         d="M 8.7185878,4.0337352 -2.2072895,0.01601326 8.7185884,-4.0017078 c -1.7454984,2.3720609 -1.7354408,5.6174519 -6e-7,8.035443 z"
         transform="scale(-0.6,-0.6)"
         inkscape:connector-curvature="0" />
    </marker>
    <marker
       inkscape:stockid="Arrow2Mend"
       orient="auto"
       refY="0"
       refX="0"
       id="Arrow2Mend-1"
       style="overflow:visible">
      <path
         inkscape:connector-curvature="0"
         id="path3969-8"
         style="fill-rule:evenodd;stroke-width:0.625;stroke-linejoin:round"
         d="M 8.7185878,4.0337352 -2.2072895,0.01601326 8.7185884,-4.0017078 c -1.7454984,2.3720609 -1.7354408,5.6174519 -6e-7,8.035443 z"
         transform="scale(-0.6,-0.6)" />
    </marker>
    <marker
       inkscape:stockid="Arrow2Mend"
       orient="auto"
       refY="0"
       refX="0"
       id="Arrow2Mend-9"
       style="overflow:visible">
      <path
         inkscape:connector-curvature="0"
         id="path3969-5"
         style="fill-rule:evenodd;stroke-width:0.625;stroke-linejoin:round"
         d="M 8.7185878,4.0337352 -2.2072895,0.01601326 8.7185884,-4.0017078 c -1.7454984,2.3720609 -1.7354408,5.6174519 -6e-7,8.035443 z"
         transform="scale(-0.6,-0.6)" />
    </marker>
    <marker
       inkscape:stockid="Arrow2Mend"
       orient="auto"
       refY="0"
       refX="0"
       id="Arrow2Mend-2"
       style="overflow:visible">
      <path
         inkscape:connector-curvature="0"
         id="path3969-7"
         style="fill-rule:evenodd;stroke-width:0.625;stroke-linejoin:round"
         d="M 8.7185878,4.0337352 -2.2072895,0.01601326 8.7185884,-4.0017078 c -1.7454984,2.3720609 -1.7354408,5.6174519 -6e-7,8.035443 z"
         transform="scale(-0.6,-0.6)" />
    </marker>
    <marker
       inkscape:stockid="Arrow2Mend"
       orient="auto"
       refY="0"
       refX="0"
       id="Arrow2Mend-20"
       style="overflow:visible">
      <path
         inkscape:connector-curvature="0"
         id="path3969-3"
         style="fill-rule:evenodd;stroke-width:0.625;stroke-linejoin:round"
         d="M 8.7185878,4.0337352 -2.2072895,0.01601326 8.7185884,-4.0017078 c -1.7454984,2.3720609 -1.7354408,5.6174519 -6e-7,8.035443 z"
         transform="scale(-0.6,-0.6)" />
    </marker>
    <marker
       inkscape:stockid="Arrow2Mend"
       orient="auto"
       refY="0"
       refX="0"
       id="Arrow2Mend-8"
       style="overflow:visible">
      <path
         inkscape:connector-curvature="0"
         id="path3969-0"
         style="fill-rule:evenodd;stroke-width:0.625;stroke-linejoin:round"
         d="M 8.7185878,4.0337352 -2.2072895,0.01601326 8.7185884,-4.0017078 c -1.7454984,2.3720609 -1.7354408,5.6174519 -6e-7,8.035443 z"
         transform="scale(-0.6,-0.6)" />
    </marker>
    <marker
       inkscape:stockid="Arrow2Mend"
       orient="auto"
       refY="0"
       refX="0"
       id="Arrow2Mend-0"
       style="overflow:visible">
      <path
         inkscape:connector-curvature="0"
         id="path3969-1"
         style="fill-rule:evenodd;stroke-width:0.625;stroke-linejoin:round"
         d="M 8.7185878,4.0337352 -2.2072895,0.01601326 8.7185884,-4.0017078 c -1.7454984,2.3720609 -1.7354408,5.6174519 -6e-7,8.035443 z"
         transform="scale(-0.6,-0.6)" />
    </marker>
    <marker
       inkscape:stockid="Arrow2Mend"
       orient="auto"
       refY="0"
       refX="0"
       id="Arrow2Mend-4"
       style="overflow:visible">
      <path
         inkscape:connector-curvature="0"
         id="path3969-6"
         style="fill-rule:evenodd;stroke-width:0.625;stroke-linejoin:round"
         d="M 8.7185878,4.0337352 -2.2072895,0.01601326 8.7185884,-4.0017078 c -1.7454984,2.3720609 -1.7354408,5.6174519 -6e-7,8.035443 z"
         transform="scale(-0.6,-0.6)" />
    </marker>
    <marker
       inkscape:stockid="Arrow2Mend"
       orient="auto"
       refY="0"
       refX="0"
       id="Arrow2Mend-18"
       style="overflow:visible">
      <path
         inkscape:connector-curvature="0"
         id="path3969-01"
         style="fill-rule:evenodd;stroke-width:0.625;stroke-linejoin:round"
         d="M 8.7185878,4.0337352 -2.2072895,0.01601326 8.7185884,-4.0017078 c -1.7454984,2.3720609 -1.7354408,5.6174519 -6e-7,8.035443 z"
         transform="scale(-0.6,-0.6)" />
    </marker>
    <marker
       inkscape:stockid="Arrow2Mend"
       orient="auto"
       refY="0"
       refX="0"
       id="Arrow2Mend-95"
       style="overflow:visible">
      <path
         inkscape:connector-curvature="0"
         id="path3969-30"
         style="fill-rule:evenodd;stroke-width:0.625;stroke-linejoin:round"
         d="M 8.7185878,4.0337352 -2.2072895,0.01601326 8.7185884,-4.0017078 c -1.7454984,2.3720609 -1.7354408,5.6174519 -6e-7,8.035443 z"
         transform="scale(-0.6,-0.6)" />
    </marker>
    <marker
       inkscape:stockid="Arrow2Mend"
       orient="auto"
       refY="0"
       refX="0"
       id="Arrow2Mend-7"
       style="overflow:visible">
      <path
         inkscape:connector-curvature="0"
         id="path3969-13"
         style="fill-rule:evenodd;stroke-width:0.625;stroke-linejoin:round"
         d="M 8.7185878,4.0337352 -2.2072895,0.01601326 8.7185884,-4.0017078 c -1.7454984,2.3720609 -1.7354408,5.6174519 -6e-7,8.035443 z"
         transform="scale(-0.6,-0.6)" />
    </marker>
    <marker
       inkscape:stockid="Arrow2Mend"
       orient="auto"
       refY="0"
       refX="0"
       id="Arrow2Mend-3"
       style="overflow:visible">
      <path
         inkscape:connector-curvature="0"
         id="path3969-2"
         style="fill-rule:evenodd;stroke-width:0.625;stroke-linejoin:round"
         d="M 8.7185878,4.0337352 -2.2072895,0.01601326 8.7185884,-4.0017078 c -1.7454984,2.3720609 -1.7354408,5.6174519 -6e-7,8.035443 z"
         transform="scale(-0.6,-0.6)" />
    </marker>
    <marker
       inkscape:stockid="Arrow2Mend"
       orient="auto"
       refY="0"
       refX="0"
       id="Arrow2Mend-6"
       style="overflow:visible">
      <path
         inkscape:connector-curvature="0"
         id="path3969-21"
         style="fill-rule:evenodd;stroke-width:0.625;stroke-linejoin:round"
         d="M 8.7185878,4.0337352 -2.2072895,0.01601326 8.7185884,-4.0017078 c -1.7454984,2.3720609 -1.7354408,5.6174519 -6e-7,8.035443 z"
         transform="scale(-0.6,-0.6)" />
    </marker>
    <marker
       inkscape:stockid="Arrow2Mend"
       orient="auto"
       refY="0"
       refX="0"
       id="Arrow2Mend-23"
       style="overflow:visible">
      <path
         inkscape:connector-curvature="0"
         id="path3969-64"
         style="fill-rule:evenodd;stroke-width:0.625;stroke-linejoin:round"
         d="M 8.7185878,4.0337352 -2.2072895,0.01601326 8.7185884,-4.0017078 c -1.7454984,2.3720609 -1.7354408,5.6174519 -6e-7,8.035443 z"
         transform="scale(-0.6,-0.6)" />
    </marker>
    <marker
       inkscape:stockid="Arrow2Mend"
       orient="auto"
       refY="0"
       refX="0"
       id="Arrow2Mend-91"
       style="overflow:visible">
      <path
         inkscape:connector-curvature="0"
         id="path3969-07"
         style="fill-rule:evenodd;stroke-width:0.625;stroke-linejoin:round"
         d="M 8.7185878,4.0337352 -2.2072895,0.01601326 8.7185884,-4.0017078 c -1.7454984,2.3720609 -1.7354408,5.6174519 -6e-7,8.035443 z"
         transform="scale(-0.6,-0.6)" />
    </marker>
    <marker
       inkscape:stockid="Arrow2Mend"
       orient="auto"
       refY="0"
       refX="0"
       id="Arrow2Mend-40"
       style="overflow:visible">
      <path
         inkscape:connector-curvature="0"
         id="path3969-82"
         style="fill-rule:evenodd;stroke-width:0.625;stroke-linejoin:round"
         d="M 8.7185878,4.0337352 -2.2072895,0.01601326 8.7185884,-4.0017078 c -1.7454984,2.3720609 -1.7354408,5.6174519 -6e-7,8.035443 z"
         transform="scale(-0.6,-0.6)" />
    </marker>
    <marker
       inkscape:stockid="Arrow2Mend"
       orient="auto"
       refY="0"
       refX="0"
       id="marker5264"
       style="overflow:visible">
      <path
         inkscape:connector-curvature="0"
         id="path5266"
         style="fill-rule:evenodd;stroke-width:0.625;stroke-linejoin:round"
         d="M 8.7185878,4.0337352 -2.2072895,0.01601326 8.7185884,-4.0017078 c -1.7454984,2.3720609 -1.7354408,5.6174519 -6e-7,8.035443 z"
         transform="scale(-0.6,-0.6)" />
    </marker>
    <marker
       inkscape:stockid="Arrow2Mend"
       orient="auto"
       refY="0"
       refX="0"
       id="marker5268"
       style="overflow:visible">
      <path
         inkscape:connector-curvature="0"
         id="path5270"
         style="fill-rule:evenodd;stroke-width:0.625;stroke-linejoin:round"
         d="M 8.7185878,4.0337352 -2.2072895,0.01601326 8.7185884,-4.0017078 c -1.7454984,2.3720609 -1.7354408,5.6174519 -6e-7,8.035443 z"
         transform="scale(-0.6,-0.6)" />
    </marker>
    <marker
       inkscape:stockid="Arrow2Mend"
       orient="auto"
       refY="0"
       refX="0"
       id="marker5272"
       style="overflow:visible">
      <path
         inkscape:connector-curvature="0"
         id="path5274"
         style="fill-rule:evenodd;stroke-width:0.625;stroke-linejoin:round"
         d="M 8.7185878,4.0337352 -2.2072895,0.01601326 8.7185884,-4.0017078 c -1.7454984,2.3720609 -1.7354408,5.6174519 -6e-7,8.035443 z"
         transform="scale(-0.6,-0.6)" />
    </marker>
    <marker
       inkscape:stockid="Arrow2Mend"
       orient="auto"
       refY="0"
       refX="0"
       id="marker5276"
       style="overflow:visible">
      <path
         inkscape:connector-curvature="0"
         id="path5278"
         style="fill-rule:evenodd;stroke-width:0.625;stroke-linejoin:round"
         d="M 8.7185878,4.0337352 -2.2072895,0.01601326 8.7185884,-4.0017078 c -1.7454984,2.3720609 -1.7354408,5.6174519 -6e-7,8.035443 z"
         transform="scale(-0.6,-0.6)" />
    </marker>
    <marker
       inkscape:stockid="Arrow2Mend"
       orient="auto"
       refY="0"
       refX="0"
       id="marker5280"
       style="overflow:visible">
      <path
         inkscape:connector-curvature="0"
         id="path5282"
         style="fill-rule:evenodd;stroke-width:0.625;stroke-linejoin:round"
         d="M 8.7185878,4.0337352 -2.2072895,0.01601326 8.7185884,-4.0017078 c -1.7454984,2.3720609 -1.7354408,5.6174519 -6e-7,8.035443 z"
         transform="scale(-0.6,-0.6)" />
    </marker>
    <marker
       inkscape:stockid="Arrow2Mend"
       orient="auto"
       refY="0"
       refX="0"
       id="marker5284"
       style="overflow:visible">
      <path
         inkscape:connector-curvature="0"
         id="path5286"
         style="fill-rule:evenodd;stroke-width:0.625;stroke-linejoin:round"
         d="M 8.7185878,4.0337352 -2.2072895,0.01601326 8.7185884,-4.0017078 c -1.7454984,2.3720609 -1.7354408,5.6174519 -6e-7,8.035443 z"
         transform="scale(-0.6,-0.6)" />
    </marker>
    <marker
       inkscape:stockid="Arrow2Mend"
       orient="auto"
       refY="0"
       refX="0"
       id="marker5288"
       style="overflow:visible">
      <path
         inkscape:connector-curvature="0"
         id="path5290"
         style="fill-rule:evenodd;stroke-width:0.625;stroke-linejoin:round"
         d="M 8.7185878,4.0337352 -2.2072895,0.01601326 8.7185884,-4.0017078 c -1.7454984,2.3720609 -1.7354408,5.6174519 -6e-7,8.035443 z"
         transform="scale(-0.6,-0.6)" />
    </marker>
    <marker
       inkscape:stockid="Arrow2Mend"
       orient="auto"
       refY="0"
       refX="0"
       id="marker5292"
       style="overflow:visible">
      <path
         inkscape:connector-curvature="0"
         id="path5294"
         style="fill-rule:evenodd;stroke-width:0.625;stroke-linejoin:round"
         d="M 8.7185878,4.0337352 -2.2072895,0.01601326 8.7185884,-4.0017078 c -1.7454984,2.3720609 -1.7354408,5.6174519 -6e-7,8.035443 z"
         transform="scale(-0.6,-0.6)" />
    </marker>
    <marker
       inkscape:stockid="Arrow2Mend"
       orient="auto"
       refY="0"
       refX="0"
       id="marker5296"
       style="overflow:visible">
      <path
         inkscape:connector-curvature="0"
         id="path5298"
         style="fill-rule:evenodd;stroke-width:0.625;stroke-linejoin:round"
         d="M 8.7185878,4.0337352 -2.2072895,0.01601326 8.7185884,-4.0017078 c -1.7454984,2.3720609 -1.7354408,5.6174519 -6e-7,8.035443 z"
         transform="scale(-0.6,-0.6)" />
    </marker>
    <marker
       inkscape:stockid="Arrow2Mend"
       orient="auto"
       refY="0"
       refX="0"
       id="marker5300"
       style="overflow:visible">
      <path
         inkscape:connector-curvature="0"
         id="path5302"
         style="fill-rule:evenodd;stroke-width:0.625;stroke-linejoin:round"
         d="M 8.7185878,4.0337352 -2.2072895,0.01601326 8.7185884,-4.0017078 c -1.7454984,2.3720609 -1.7354408,5.6174519 -6e-7,8.035443 z"
         transform="scale(-0.6,-0.6)" />
    </marker>
    <marker
       inkscape:stockid="Arrow2Mend"
       orient="auto"
       refY="0"
       refX="0"
       id="marker5304"
       style="overflow:visible">
      <path
         inkscape:connector-curvature="0"
         id="path5306"
         style="fill-rule:evenodd;stroke-width:0.625;stroke-linejoin:round"
         d="M 8.7185878,4.0337352 -2.2072895,0.01601326 8.7185884,-4.0017078 c -1.7454984,2.3720609 -1.7354408,5.6174519 -6e-7,8.035443 z"
         transform="scale(-0.6,-0.6)" />
    </marker>
    <marker
       inkscape:stockid="Arrow2Mend"
       orient="auto"
       refY="0"
       refX="0"
       id="marker5308"
       style="overflow:visible">
      <path
         inkscape:connector-curvature="0"
         id="path5310"
         style="fill-rule:evenodd;stroke-width:0.625;stroke-linejoin:round"
         d="M 8.7185878,4.0337352 -2.2072895,0.01601326 8.7185884,-4.0017078 c -1.7454984,2.3720609 -1.7354408,5.6174519 -6e-7,8.035443 z"
         transform="scale(-0.6,-0.6)" />
    </marker>
    <marker
       inkscape:stockid="Arrow2Mend"
       orient="auto"
       refY="0"
       refX="0"
       id="marker5308-0"
       style="overflow:visible">
      <path
         inkscape:connector-curvature="0"
         id="path5310-9"
         style="fill-rule:evenodd;stroke-width:0.625;stroke-linejoin:round"
         d="M 8.7185878,4.0337352 -2.2072895,0.01601326 8.7185884,-4.0017078 c -1.7454984,2.3720609 -1.7354408,5.6174519 -6e-7,8.035443 z"
         transform="scale(-0.6,-0.6)" />
    </marker>
    <marker
       inkscape:stockid="Arrow2Mend"
       orient="auto"
       refY="0"
       refX="0"
       id="marker6102"
       style="overflow:visible">
      <path
         inkscape:connector-curvature="0"
         id="path6104"
         style="fill-rule:evenodd;stroke-width:0.625;stroke-linejoin:round"
         d="M 8.7185878,4.0337352 -2.2072895,0.01601326 8.7185884,-4.0017078 c -1.7454984,2.3720609 -1.7354408,5.6174519 -6e-7,8.035443 z"
         transform="scale(-0.6,-0.6)" />
    </marker>
    <marker
       inkscape:stockid="Arrow2Mend"
       orient="auto"
       refY="0"
       refX="0"
       id="Arrow2Mend-33"
       style="overflow:visible">
      <path
         inkscape:connector-curvature="0"
         id="path3969-57"
         style="fill-rule:evenodd;stroke-width:0.625;stroke-linejoin:round"
         d="M 8.7185878,4.0337352 -2.2072895,0.01601326 8.7185884,-4.0017078 c -1.7454984,2.3720609 -1.7354408,5.6174519 -6e-7,8.035443 z"
         transform="scale(-0.6,-0.6)" />
    </marker>
  </defs>
  <sodipodi:namedview
     id="base"
     pagecolor="#ffffff"
     bordercolor="#666666"
     borderopacity="1.0"
     inkscape:pageopacity="0.0"
     inkscape:pageshadow="2"
     inkscape:zoom="1.75375"
     inkscape:cx="237.64425"
     inkscape:cy="211.8957"
     inkscape:document-units="px"
     inkscape:current-layer="layer1"
     showgrid="false"
     inkscape:window-width="1920"
     inkscape:window-height="1172"
     inkscape:window-x="1200"
     inkscape:window-y="520"
     inkscape:window-maximized="1"
     fit-margin-top="0.5"
     fit-margin-bottom="0.5"
     fit-margin-right="0.5"
     fit-margin-left="0.5" />
  <metadata
     id="metadata7">
    <rdf:RDF>
      <cc:Work
         rdf:about="">
        <dc:format>image/svg+xml</dc:format>
        <dc:type
           rdf:resource="http://purl.org/dc/dcmitype/StillImage" />
        <dc:title></dc:title>
      </cc:Work>
    </rdf:RDF>
  </metadata>
  <g
     inkscape:groupmode="layer"
     id="layer2"
     inkscape:label="dahinter"
     style="display:inline"
     transform="translate(-342.12067,-189.28819)">
    <path
       style="fill:none;stroke:#000000;stroke-width:1;stroke-linecap:butt;stroke-linejoin:miter;stroke-miterlimit:4;stroke-opacity:1;stroke-dasharray:1, 4;stroke-dashoffset:0;display:inline"
       d="m 343.12067,680.21133 408.03539,-0.80639"
       id="path5598"
       inkscape:connector-curvature="0"
       transform="translate(0,-308.2677)" />
  </g>
  <g
     inkscape:label="davor"
     inkscape:groupmode="layer"
     id="layer1"
     transform="translate(-342.12067,-497.55589)"
     style="display:inline">
    <path
       sodipodi:type="arc"
       style="fill:#67ff69;fill-opacity:1;stroke-width:0.80000001;stroke-miterlimit:2.5999999;stroke-dasharray:none;stroke-dashoffset:0"
       id="path2985"
       sodipodi:cx="542.5"
       sodipodi:cy="397.59448"
       sodipodi:rx="19.5"
       sodipodi:ry="19.5"
       d="m 562,397.59448 c 0,10.76956 -8.73045,19.5 -19.5,19.5 -10.76955,0 -19.5,-8.73044 -19.5,-19.5 0,-10.76955 8.73045,-19.5 19.5,-19.5 10.76955,0 19.5,8.73045 19.5,19.5 z"
       transform="translate(-46,282.2677)" />
    <text
       xml:space="preserve"
       style="font-size:24px;font-style:normal;font-weight:normal;line-height:125%;letter-spacing:0px;word-spacing:0px;fill:#000000;fill-opacity:1;stroke:none;font-family:Bitstream Vera Sans"
       x="485"
       y="687.36218"
       id="text3755"
       sodipodi:linespacing="125%"><tspan
         sodipodi:role="line"
         id="tspan3757"
         x="485"
         y="687.36218">IR</tspan></text>
    <rect
       style="fill:#ff9999;fill-opacity:0.29223747;stroke:#000000;stroke-width:0.80000001;stroke-miterlimit:2.5999999;stroke-opacity:1;stroke-dasharray:2.40000004, 0.80000001;stroke-dashoffset:0"
       id="rect3763"
       width="96.747971"
       height="63.414635"
       x="358.53659"
       y="283.93188"
       transform="translate(0,308.2677)" />
    <text
       xml:space="preserve"
       style="font-size:12px;font-style:normal;font-weight:normal;line-height:125%;letter-spacing:0px;word-spacing:0px;fill:#000000;fill-opacity:1;stroke:none;font-family:Bitstream Vera Sans"
       x="365.85367"
       y="302.63107"
       id="text3765"
       sodipodi:linespacing="125%"
       transform="translate(0,308.2677)"><tspan
         sodipodi:role="line"
         id="tspan3767"
         x="365.85367"
         y="302.63107">coding</tspan><tspan
         sodipodi:role="line"
         x="365.85367"
         y="317.63107"
         id="tspan3769">gene on</tspan><tspan
         sodipodi:role="line"
         x="365.85367"
         y="332.63107"
         id="tspan3771">plus strand</tspan></text>
    <rect
       style="fill:#ffaaaa;fill-opacity:0.29223747;stroke:#000000;stroke-width:0.80000001;stroke-miterlimit:2.5999999;stroke-opacity:1;stroke-dasharray:2.4, 0.8;stroke-dashoffset:0"
       id="rect3763-7"
       width="96.747971"
       height="63.414635"
       x="358.94308"
       y="704.39465" />
    <text
       xml:space="preserve"
       style="font-size:12px;font-style:normal;font-weight:normal;line-height:125%;letter-spacing:0px;word-spacing:0px;fill:#000000;fill-opacity:1;stroke:none;font-family:Bitstream Vera Sans"
       x="366.26016"
       y="723.09387"
       id="text3765-9"
       sodipodi:linespacing="125%"><tspan
         sodipodi:role="line"
         id="tspan3767-2"
         x="366.26016"
         y="723.09387">coding</tspan><tspan
         sodipodi:role="line"
         x="366.26016"
         y="738.09387"
         id="tspan3769-7">gene on</tspan><tspan
         sodipodi:role="line"
         x="366.26016"
         y="753.09387"
         id="tspan3771-6">minus strand</tspan></text>
    <path
       sodipodi:type="arc"
       style="fill:#5599ff;fill-opacity:0.29223747;stroke-width:0.80000001;stroke-miterlimit:2.5999999;stroke-dasharray:none;stroke-dashoffset:0"
       id="path3803"
       sodipodi:cx="516.66669"
       sodipodi:cy="317.24265"
       sodipodi:rx="25"
       sodipodi:ry="11.111111"
       d="m 541.66669,317.24265 c 0,6.13649 -11.19288,11.11111 -25,11.11111 -13.80712,0 -25,-4.97462 -25,-11.11111 0,-6.1365 11.19288,-11.11112 25,-11.11112 13.80712,0 25,4.97462 25,11.11112 z"
       transform="translate(-18.987127,255.23469)" />
    <text
       xml:space="preserve"
       style="font-size:12px;font-style:normal;font-weight:normal;line-height:125%;letter-spacing:0px;word-spacing:0px;fill:#000000;fill-opacity:1;stroke:none;font-family:Bitstream Vera Sans"
       x="482.86475"
       y="575.71808"
       id="text3805"
       sodipodi:linespacing="125%"><tspan
         sodipodi:role="line"
         id="tspan3807"
         x="482.86475"
         y="575.71808">ncinit</tspan></text>
    <path
       sodipodi:type="arc"
       style="fill:#5599ff;fill-opacity:0.29223747;stroke-width:0.80000001;stroke-miterlimit:2.5999999;stroke-dasharray:none;stroke-dashoffset:0"
       id="path3803-2"
       sodipodi:cx="516.66669"
       sodipodi:cy="317.24265"
       sodipodi:rx="25"
       sodipodi:ry="11.111111"
       d="m 541.66669,317.24265 c 0,6.13649 -11.19288,11.11111 -25,11.11111 -13.80712,0 -25,-4.97462 -25,-11.11111 0,-6.1365 11.19288,-11.11112 25,-11.11112 13.80712,0 25,4.97462 25,11.11112 z"
       transform="matrix(1.3404589,0,0,1,-138.34274,328.8605)" />
    <path
       sodipodi:type="arc"
       style="fill:#5599ff;fill-opacity:0.29223747;stroke-width:0.80000001;stroke-miterlimit:2.5999999;stroke-dasharray:none;stroke-dashoffset:0"
       id="path3803-1"
       sodipodi:cx="516.66669"
       sodipodi:cy="317.24265"
       sodipodi:rx="25"
       sodipodi:ry="11.111111"
       d="m 541.66669,317.24265 c 0,6.13649 -11.19288,11.11111 -25,11.11111 -13.80712,0 -25,-4.97462 -25,-11.11111 0,-6.1365 11.19288,-11.11112 25,-11.11112 13.80712,0 25,4.97462 25,11.11112 z"
       transform="matrix(1.7267486,0,0,1,-305.02571,256.51301)" />
    <path
       sodipodi:type="arc"
       style="fill:#e4ee00;fill-opacity:0.69803922;stroke-width:0.80000001;stroke-miterlimit:2.5999999;stroke-dasharray:none;stroke-dashoffset:0"
       id="path3803-1-2"
       sodipodi:cx="516.66669"
       sodipodi:cy="317.24265"
       sodipodi:rx="25"
       sodipodi:ry="11.111111"
       d="m 541.66669,317.24265 c 0,6.13649 -11.19288,11.11111 -25,11.11111 -13.80712,0 -25,-4.97462 -25,-11.11111 0,-6.1365 11.19288,-11.11112 25,-11.11112 13.80712,0 25,4.97462 25,11.11112 z"
       transform="matrix(1.7267486,0,0,1,-306.8262,293.83252)" />
    <path
       sodipodi:type="arc"
       style="fill:#e4ee00;fill-opacity:0.69907406;stroke-width:0.80000001;stroke-miterlimit:2.5999999;stroke-dasharray:none;stroke-dashoffset:0"
       id="path3803-1-2-7"
       sodipodi:cx="516.66669"
       sodipodi:cy="317.24265"
       sodipodi:rx="25"
       sodipodi:ry="11.111111"
       d="m 541.66669,317.24265 c 0,6.13649 -11.19288,11.11111 -25,11.11111 -13.80712,0 -25,-4.97462 -25,-11.11111 0,-6.1365 11.19288,-11.11112 25,-11.11112 13.80712,0 25,4.97462 25,11.11112 z"
       transform="matrix(1.7267486,0,0,1,-305.18938,217.88402)" />
    <path
       sodipodi:type="arc"
       style="fill:#5599ff;fill-opacity:0.29223747;stroke-width:0.80000001;stroke-miterlimit:2.5999999;stroke-dasharray:none;stroke-dashoffset:0"
       id="path3803-4"
       sodipodi:cx="516.66669"
       sodipodi:cy="317.24265"
       sodipodi:rx="25"
       sodipodi:ry="11.111111"
       d="m 541.66669,317.24265 c 0,6.13649 -11.19288,11.11111 -25,11.11111 -13.80712,0 -25,-4.97462 -25,-11.11111 0,-6.1365 11.19288,-11.11112 25,-11.11112 13.80712,0 25,4.97462 25,11.11112 z"
       transform="matrix(1.1047566,0,0,1,116.34665,256.84036)" />
    <text
       xml:space="preserve"
       style="font-size:12px;font-style:normal;font-weight:normal;line-height:125%;letter-spacing:0px;word-spacing:0px;fill:#000000;fill-opacity:1;stroke:none;font-family:Bitstream Vera Sans"
       x="558.15607"
       y="577.68402"
       id="text3914"
       sodipodi:linespacing="125%"><tspan
         sodipodi:role="line"
         id="tspan3916"
         x="558.15607"
         y="577.68402">ncinternal</tspan></text>
    <text
       xml:space="preserve"
       style="font-size:12px;font-style:normal;font-weight:normal;line-height:125%;letter-spacing:0px;word-spacing:0px;fill:#000000;fill-opacity:1;stroke:none;font-family:Bitstream Vera Sans"
       x="552.26349"
       y="614.34882"
       id="text3918"
       sodipodi:linespacing="125%"><tspan
         sodipodi:role="line"
         id="tspan3920"
         x="552.26349"
         y="614.34882">ncintronvar</tspan></text>
    <text
       xml:space="preserve"
       style="font-size:12px;font-style:normal;font-weight:normal;line-height:125%;letter-spacing:0px;word-spacing:0px;fill:#000000;fill-opacity:1;stroke:none;font-family:Bitstream Vera Sans"
       x="563.06653"
       y="538.40033"
       id="text3922"
       sodipodi:linespacing="125%"><tspan
         sodipodi:role="line"
         id="tspan3924"
         x="563.06653"
         y="538.40033">ncintron</tspan></text>
    <text
       xml:space="preserve"
       style="font-size:12px;font-style:normal;font-weight:normal;line-height:125%;letter-spacing:0px;word-spacing:0px;fill:#000000;fill-opacity:1;stroke:none;font-family:Bitstream Vera Sans"
       x="666.51355"
       y="577.0293"
       id="text3926"
       sodipodi:linespacing="125%"><tspan
         sodipodi:role="line"
         id="tspan3928"
         x="666.51355"
         y="577.0293">ncterm</tspan></text>
    <text
       xml:space="preserve"
       style="font-size:12px;font-style:normal;font-weight:normal;line-height:125%;letter-spacing:0px;word-spacing:0px;fill:#000000;fill-opacity:1;stroke:none;font-family:Bitstream Vera Sans"
       x="530.00269"
       y="649.04944"
       id="text3930"
       sodipodi:linespacing="125%"><tspan
         sodipodi:role="line"
         id="tspan3932"
         x="530.00269"
         y="649.04944">ncsingle</tspan></text>
    <path
       style="fill:none;stroke:#000000;stroke-width:1px;stroke-linecap:butt;stroke-linejoin:miter;stroke-opacity:1;marker-end:url(#Arrow2Mend)"
       d="m 513.95053,564.02056 c 1.71622,-2.69663 10.534,-13.07055 13.7096,-15.96482 5.94004,-5.4138 15.34474,-10.99311 15.34474,-10.99311"
       id="path4772-4"
       inkscape:connector-curvature="0"
       sodipodi:nodetypes="csc" />
    <path
       style="fill:none;stroke:#000000;stroke-width:1px;stroke-linecap:butt;stroke-linejoin:miter;stroke-opacity:1;marker-end:url(#Arrow2Mend)"
       d="m 574.77271,524.40089 c -3.3241,-3.30147 -1.97277,-26.03147 11.89508,-25.84385 16.14043,0.21836 11.05083,21.01121 10.002,24.38995"
       id="path4772-4-3"
       inkscape:connector-curvature="0"
       sodipodi:nodetypes="csc" />
    <path
       style="fill:none;stroke:#000000;stroke-width:1px;stroke-linecap:butt;stroke-linejoin:miter;stroke-opacity:1;marker-end:url(#Arrow2Mend)"
       d="m 702.1521,583.94236 c 1.82416,21.15819 -0.63427,41.26173 -48.02807,66.89202 -39.82922,21.53942 -137.00018,28.9133 -137.00018,28.9133"
       id="path4772-3"
       inkscape:connector-curvature="0"
       sodipodi:nodetypes="csc" />
    <path
       style="fill:none;stroke:#000000;stroke-width:1px;stroke-linecap:butt;stroke-linejoin:miter;stroke-opacity:1;marker-end:url(#Arrow2Mend)"
       d="m 587.44602,647.12241 c 7.63383,3.46537 6.80368,8.9101 -2.77223,12.44718 -22.11852,8.16999 -67.89536,15.31328 -67.89536,15.31328"
       id="path4772-42"
       inkscape:connector-curvature="0"
       sodipodi:nodetypes="csc" />
    <path
       style="fill:none;stroke:#000000;stroke-width:1px;stroke-linecap:butt;stroke-linejoin:miter;stroke-opacity:1;marker-end:url(#Arrow2Mend)"
       d="m 630.16793,534.5081 c 7.19434,5.54214 11.97063,10.73653 15.04188,13.54006 4.02241,3.67179 18.50042,19.11358 18.50042,19.11358"
       id="path4772-42-7"
       inkscape:connector-curvature="0"
       sodipodi:nodetypes="csc" />
    <path
       style="fill:none;stroke:#000000;stroke-width:1px;stroke-linecap:butt;stroke-linejoin:miter;stroke-opacity:1;marker-end:url(#Arrow2Mend)"
       d="m 581.03149,546.17206 c -0.0758,1.30089 -0.15704,3.49728 -0.21115,4.98696 -0.0642,1.76623 -0.0313,10.27538 -0.0313,10.27538"
       id="path4772-42-7-9"
       inkscape:connector-curvature="0"
       sodipodi:nodetypes="csc" />
    <path
       style="fill:none;stroke:#000000;stroke-width:1px;stroke-linecap:butt;stroke-linejoin:miter;stroke-opacity:1;marker-end:url(#Arrow2Mend)"
       d="m 580.74638,584.80357 c -0.0758,1.14246 -0.0552,4.83185 -0.13988,6.91141 -0.0358,0.87885 -0.17385,7.06796 -0.17385,7.06796"
       id="path4772-42-7-3"
       inkscape:connector-curvature="0"
       sodipodi:nodetypes="csc" />
    <path
       style="fill:none;stroke:#000000;stroke-width:1px;stroke-linecap:butt;stroke-linejoin:miter;stroke-opacity:1;marker-end:url(#Arrow2Mend)"
       d="m 628.5012,610.32031 c 5.91137,-4.15138 14.94029,-12.90593 18.03546,-15.68303 2.73945,-2.45793 15.79194,-14.10096 15.79194,-14.10096"
       id="path4772-42-7-6"
       inkscape:connector-curvature="0"
       sodipodi:nodetypes="csc" />
    <path
       style="fill:none;stroke:#000000;stroke-width:1px;stroke-linecap:butt;stroke-linejoin:miter;stroke-opacity:1;marker-end:url(#Arrow2Mend)"
       d="m 593.36221,600.05659 c -0.0758,-2.15565 -0.10243,-5.19508 -0.0686,-7.20121 0.0561,-3.32435 0.11125,-6.9021 0.11125,-6.9021"
       id="path4772-42-7-2"
       inkscape:connector-curvature="0"
       sodipodi:nodetypes="csc" />
    <path
       style="fill:none;stroke:#000000;stroke-width:1px;stroke-linecap:butt;stroke-linejoin:miter;stroke-opacity:1;marker-end:url(#Arrow2Mend)"
       d="m 594.82336,562.85061 c -0.0402,-2.93969 0.0307,-4.25959 -0.0686,-8.91183 -0.0634,-2.97174 0.004,-6.54572 0.004,-6.54572"
       id="path4772-42-7-5"
       inkscape:connector-curvature="0"
       sodipodi:nodetypes="csc" />
    <path
       style="fill:none;stroke:#000000;stroke-width:1px;stroke-linecap:butt;stroke-linejoin:miter;stroke-opacity:1;marker-end:url(#Arrow2Mend)"
       d="m 496.91629,660.51618 c 0.006,-5.26256 -0.29783,-22.92991 -0.11791,-31.21785 0.23816,-10.97114 -0.33595,-44.6353 -0.33595,-44.6353"
       id="path4772-4-1"
       inkscape:connector-curvature="0"
       sodipodi:nodetypes="csc" />
    <path
       style="fill:none;stroke:#000000;stroke-width:1px;stroke-linecap:butt;stroke-linejoin:miter;stroke-opacity:1;marker-end:url(#Arrow2Mend)"
       d="m 505.46939,662.797 c 1.85877,-1.55622 4.04776,-3.11414 7.36605,-5.84365 2.16242,-1.77873 8.85864,-6.85911 8.85864,-6.85911"
       id="path4772-4-5"
       inkscape:connector-curvature="0"
       sodipodi:nodetypes="csc" />
    <path
       style="fill:none;stroke:#000000;stroke-width:1px;stroke-linecap:butt;stroke-linejoin:miter;stroke-opacity:1;marker-end:url(#Arrow2Mend)"
       d="m 516.1497,579.89055 c 5.98475,6.04613 9.8903,9.68976 12.72349,12.73366 3.41762,3.67179 14.97245,14.47682 14.97245,14.47682"
       id="path4772-42-7-21"
       inkscape:connector-curvature="0"
       sodipodi:nodetypes="csc" />
    <path
       sodipodi:type="arc"
       style="fill:#5599ff;fill-opacity:0.29223747;stroke-width:0.80000001;stroke-miterlimit:2.5999999;stroke-dasharray:none;stroke-dashoffset:0"
       id="path3803-46"
       sodipodi:cx="516.66669"
       sodipodi:cy="317.24265"
       sodipodi:rx="25"
       sodipodi:ry="11.111111"
       d="m 541.66669,317.24265 c 0,6.13649 -11.19288,11.11111 -25,11.11111 -13.80712,0 -25,-4.97462 -25,-11.11111 0,-6.1365 11.19288,-11.11112 25,-11.11112 13.80712,0 25,4.97462 25,11.11112 z"
       transform="matrix(1,0,0,-1,-18.820555,1104.7636)" />
    <text
       xml:space="preserve"
       style="font-size:12px;font-style:normal;font-weight:normal;line-height:125%;letter-spacing:0px;word-spacing:0px;fill:#000000;fill-opacity:1;stroke:none;font-family:Bitstream Vera Sans"
       x="478.59613"
       y="791.61469"
       id="text3805-8"
       sodipodi:linespacing="125%"><tspan
         sodipodi:role="line"
         id="tspan3807-9"
         x="478.59613"
         y="791.61469">rncinit</tspan></text>
    <path
       sodipodi:type="arc"
       style="fill:#5599ff;fill-opacity:0.29223747;stroke-width:0.80000001;stroke-miterlimit:2.5999999;stroke-dasharray:none;stroke-dashoffset:0"
       id="path3803-2-0"
       sodipodi:cx="516.66669"
       sodipodi:cy="317.24265"
       sodipodi:rx="25"
       sodipodi:ry="11.111111"
       d="m 541.66669,317.24265 c 0,6.13649 -11.19288,11.11111 -25,11.11111 -13.80712,0 -25,-4.97462 -25,-11.11111 0,-6.1365 11.19288,-11.11112 25,-11.11112 13.80712,0 25,4.97462 25,11.11112 z"
       transform="matrix(1.3404589,0,0,-1,-138.17616,1031.1378)" />
    <path
       sodipodi:type="arc"
       style="fill:#5599ff;fill-opacity:0.29223747;stroke-width:0.80000001;stroke-miterlimit:2.5999999;stroke-dasharray:none;stroke-dashoffset:0"
       id="path3803-1-28"
       sodipodi:cx="516.66669"
       sodipodi:cy="317.24265"
       sodipodi:rx="25"
       sodipodi:ry="11.111111"
       d="m 541.66669,317.24265 c 0,6.13649 -11.19288,11.11111 -25,11.11111 -13.80712,0 -25,-4.97462 -25,-11.11111 0,-6.1365 11.19288,-11.11112 25,-11.11112 13.80712,0 25,4.97462 25,11.11112 z"
       transform="matrix(1.7267486,0,0,-1,-304.85913,1103.4853)" />
    <path
       sodipodi:type="arc"
       style="fill:#e4ee00;fill-opacity:0.69803922;stroke-width:0.80000001;stroke-miterlimit:2.5999999;stroke-dasharray:none;stroke-dashoffset:0"
       id="path3803-1-2-0"
       sodipodi:cx="516.66669"
       sodipodi:cy="317.24265"
       sodipodi:rx="25"
       sodipodi:ry="11.111111"
       d="m 541.66669,317.24265 c 0,6.13649 -11.19288,11.11111 -25,11.11111 -13.80712,0 -25,-4.97462 -25,-11.11111 0,-6.1365 11.19288,-11.11112 25,-11.11112 13.80712,0 25,4.97462 25,11.11112 z"
       transform="matrix(1.7267486,0,0,-1,-306.65962,1066.1658)" />
    <path
       sodipodi:type="arc"
       style="fill:#e4ee00;fill-opacity:0.69907406;stroke-width:0.80000001;stroke-miterlimit:2.5999999;stroke-dasharray:none;stroke-dashoffset:0"
       id="path3803-1-2-7-3"
       sodipodi:cx="516.66669"
       sodipodi:cy="317.24265"
       sodipodi:rx="25"
       sodipodi:ry="11.111111"
       d="m 541.66669,317.24265 c 0,6.13649 -11.19288,11.11111 -25,11.11111 -13.80712,0 -25,-4.97462 -25,-11.11111 0,-6.1365 11.19288,-11.11112 25,-11.11112 13.80712,0 25,4.97462 25,11.11112 z"
       transform="matrix(1.7267486,0,0,-1,-305.0228,1142.1143)" />
    <path
       sodipodi:type="arc"
       style="fill:#5599ff;fill-opacity:0.29223747;stroke-width:0.80000001;stroke-miterlimit:2.5999999;stroke-dasharray:none;stroke-dashoffset:0"
       id="path3803-4-2"
       sodipodi:cx="516.66669"
       sodipodi:cy="317.24265"
       sodipodi:rx="25"
       sodipodi:ry="11.111111"
       d="m 541.66669,317.24265 c 0,6.13649 -11.19288,11.11111 -25,11.11111 -13.80712,0 -25,-4.97462 -25,-11.11111 0,-6.1365 11.19288,-11.11112 25,-11.11112 13.80712,0 25,4.97462 25,11.11112 z"
       transform="matrix(1.1047566,0,0,-1,116.51323,1103.1579)" />
    <text
       xml:space="preserve"
       style="font-size:12px;font-style:normal;font-weight:normal;line-height:125%;letter-spacing:0px;word-spacing:0px;fill:#000000;fill-opacity:1;stroke:none;font-family:Bitstream Vera Sans"
       x="555.90344"
       y="790.05194"
       id="text3914-3"
       sodipodi:linespacing="125%"><tspan
         sodipodi:role="line"
         id="tspan3916-4"
         x="555.90344"
         y="790.05194">rncinternal</tspan></text>
    <text
       xml:space="preserve"
       style="font-size:12px;font-style:normal;font-weight:normal;line-height:125%;letter-spacing:0px;word-spacing:0px;fill:#000000;fill-opacity:1;stroke:none;font-family:Bitstream Vera Sans"
       x="548.80127"
       y="752.98395"
       id="text3918-9"
       sodipodi:linespacing="125%"><tspan
         sodipodi:role="line"
         id="tspan3920-8"
         x="548.80127"
         y="752.98395">rncintronvar</tspan></text>
    <text
       xml:space="preserve"
       style="font-size:12px;font-style:normal;font-weight:normal;line-height:125%;letter-spacing:0px;word-spacing:0px;fill:#000000;fill-opacity:1;stroke:none;font-family:Bitstream Vera Sans"
       x="560.41071"
       y="828.93243"
       id="text3922-4"
       sodipodi:linespacing="125%"><tspan
         sodipodi:role="line"
         id="tspan3924-8"
         x="560.41071"
         y="828.93243">rncintron</tspan></text>
    <text
       xml:space="preserve"
       style="font-size:12px;font-style:normal;font-weight:normal;line-height:125%;letter-spacing:0px;word-spacing:0px;fill:#000000;fill-opacity:1;stroke:none;font-family:Bitstream Vera Sans"
       x="664.26093"
       y="789.20886"
       id="text3926-6"
       sodipodi:linespacing="125%"><tspan
         sodipodi:role="line"
         id="tspan3928-2"
         x="664.26093"
         y="789.20886">rncterm</tspan></text>
    <text
       xml:space="preserve"
       style="font-size:12px;font-style:normal;font-weight:normal;line-height:125%;letter-spacing:0px;word-spacing:0px;fill:#000000;fill-opacity:1;stroke:none;font-family:Bitstream Vera Sans"
       x="528.15326"
       y="717.16675"
       id="text3930-1"
       sodipodi:linespacing="125%"><tspan
         sodipodi:role="line"
         id="tspan3932-8"
         x="528.15326"
         y="717.16675">rncsingle</tspan></text>
    <path
       style="fill:none;stroke:#000000;stroke-width:1px;stroke-linecap:butt;stroke-linejoin:miter;stroke-opacity:1;marker-end:url(#Arrow2Mend)"
       d="m 514.11711,795.97771 c 1.71622,2.69663 10.534,13.07055 13.7096,15.96482 5.94004,5.4138 15.34474,10.99311 15.34474,10.99311"
       id="path4772-4-10"
       inkscape:connector-curvature="0"
       sodipodi:nodetypes="csc" />
    <path
       style="fill:none;stroke:#000000;stroke-width:1px;stroke-linecap:butt;stroke-linejoin:miter;stroke-opacity:1;marker-end:url(#Arrow2Mend)"
       d="m 574.93929,835.59738 c -3.3241,3.30147 -1.97277,26.03147 11.89508,25.84385 16.14043,-0.21836 11.05083,-21.01121 10.002,-24.38995"
       id="path4772-4-3-3"
       inkscape:connector-curvature="0"
       sodipodi:nodetypes="csc" />
    <path
       style="fill:none;stroke:#000000;stroke-width:1px;stroke-linecap:butt;stroke-linejoin:miter;stroke-opacity:1;marker-end:url(#Arrow2Mend)"
       d="m 702.31868,776.05591 c 1.82416,-21.15819 -0.63427,-41.26173 -48.02807,-66.89202 -39.82922,-21.53942 -137.00018,-28.9133 -137.00018,-28.9133"
       id="path4772-3-6"
       inkscape:connector-curvature="0"
       sodipodi:nodetypes="csc" />
    <path
       style="fill:none;stroke:#000000;stroke-width:1px;stroke-linecap:butt;stroke-linejoin:miter;stroke-opacity:1;marker-end:url(#Arrow2Mend)"
       d="m 587.6126,712.87586 c 7.63383,-3.46537 6.80368,-8.9101 -2.77223,-12.44718 -22.11852,-8.16999 -67.89536,-15.31328 -67.89536,-15.31328"
       id="path4772-42-6"
       inkscape:connector-curvature="0"
       sodipodi:nodetypes="csc" />
    <path
       style="fill:none;stroke:#000000;stroke-width:1px;stroke-linecap:butt;stroke-linejoin:miter;stroke-opacity:1;marker-end:url(#Arrow2Mend)"
       d="m 630.33451,825.49017 c 7.19434,-5.54214 11.97063,-10.73653 15.04188,-13.54006 4.02241,-3.67179 18.50042,-19.11358 18.50042,-19.11358"
       id="path4772-42-7-36"
       inkscape:connector-curvature="0"
       sodipodi:nodetypes="csc" />
    <path
       style="fill:none;stroke:#000000;stroke-width:1px;stroke-linecap:butt;stroke-linejoin:miter;stroke-opacity:1;marker-end:url(#Arrow2Mend)"
       d="m 581.19807,813.82621 c -0.0758,-1.30089 -0.15704,-3.49728 -0.21115,-4.98696 -0.0642,-1.76623 -0.0313,-10.27538 -0.0313,-10.27538"
       id="path4772-42-7-9-0"
       inkscape:connector-curvature="0"
       sodipodi:nodetypes="csc" />
    <path
       style="fill:none;stroke:#000000;stroke-width:1px;stroke-linecap:butt;stroke-linejoin:miter;stroke-opacity:1;marker-end:url(#Arrow2Mend)"
       d="m 580.91296,775.1947 c -0.0758,-1.14246 -0.0552,-4.83185 -0.13988,-6.91141 -0.0358,-0.87885 -0.17385,-7.06796 -0.17385,-7.06796"
       id="path4772-42-7-3-5"
       inkscape:connector-curvature="0"
       sodipodi:nodetypes="csc" />
    <path
       style="fill:none;stroke:#000000;stroke-width:1px;stroke-linecap:butt;stroke-linejoin:miter;stroke-opacity:1;marker-end:url(#Arrow2Mend)"
       d="m 628.66778,749.67796 c 5.91137,4.15138 14.94029,12.90593 18.03546,15.68303 2.73945,2.45793 15.79194,14.10096 15.79194,14.10096"
       id="path4772-42-7-6-1"
       inkscape:connector-curvature="0"
       sodipodi:nodetypes="csc" />
    <path
       style="fill:none;stroke:#000000;stroke-width:1px;stroke-linecap:butt;stroke-linejoin:miter;stroke-opacity:1;marker-end:url(#Arrow2Mend)"
       d="m 593.52879,759.94168 c -0.0758,2.15565 -0.10243,5.19508 -0.0686,7.20121 0.0561,3.32435 0.11125,6.9021 0.11125,6.9021"
       id="path4772-42-7-2-7"
       inkscape:connector-curvature="0"
       sodipodi:nodetypes="csc" />
    <path
       style="fill:none;stroke:#000000;stroke-width:1px;stroke-linecap:butt;stroke-linejoin:miter;stroke-opacity:1;marker-end:url(#Arrow2Mend)"
       d="m 594.98994,797.14766 c -0.0402,2.93969 0.0307,4.25959 -0.0686,8.91183 -0.0634,2.97174 0.004,6.54572 0.004,6.54572"
       id="path4772-42-7-5-9"
       inkscape:connector-curvature="0"
       sodipodi:nodetypes="csc" />
    <path
       style="fill:none;stroke:#000000;stroke-width:1px;stroke-linecap:butt;stroke-linejoin:miter;stroke-opacity:1;marker-end:url(#Arrow2Mend)"
       d="m 497.08287,699.48209 c 0.006,5.26256 -0.29783,22.92991 -0.11791,31.21785 0.23816,10.97114 -0.33595,44.6353 -0.33595,44.6353"
       id="path4772-4-1-0"
       inkscape:connector-curvature="0"
       sodipodi:nodetypes="csc" />
    <path
       style="fill:none;stroke:#000000;stroke-width:1px;stroke-linecap:butt;stroke-linejoin:miter;stroke-opacity:1;marker-end:url(#Arrow2Mend)"
       d="m 505.63597,697.20127 c 1.85877,1.55622 4.04776,3.11414 7.36605,5.84365 2.16242,1.77873 8.85864,6.85911 8.85864,6.85911"
       id="path4772-4-5-7"
       inkscape:connector-curvature="0"
       sodipodi:nodetypes="csc" />
    <path
       style="fill:none;stroke:#000000;stroke-width:1px;stroke-linecap:butt;stroke-linejoin:miter;stroke-opacity:1;marker-end:url(#Arrow2Mend)"
       d="m 516.31628,780.10772 c 5.98475,-6.04613 9.8903,-9.68976 12.72349,-12.73366 3.41762,-3.67179 14.97245,-14.47682 14.97245,-14.47682"
       id="path4772-42-7-21-1"
       inkscape:connector-curvature="0"
       sodipodi:nodetypes="csc" />
    <path
       style="fill:none;stroke:#000000;stroke-width:1px;stroke-linecap:butt;stroke-linejoin:miter;stroke-opacity:1;marker-end:url(#marker5308)"
       d="M 480.40925,360.25092 456.01583,341.70386"
       id="path5610"
       inkscape:connector-curvature="0"
       transform="translate(0,308.2677)"
       sodipodi:nodetypes="cc" />
    <path
       style="fill:none;stroke:#000000;stroke-width:1px;stroke-linecap:round;stroke-linejoin:miter;stroke-opacity:1;marker-end:url(#marker5308)"
       d="m 455.36422,318.60353 29.90576,35.63402"
       id="path5850"
       inkscape:connector-curvature="0"
       transform="translate(0,308.2677)"
       sodipodi:nodetypes="cc" />
    <path
       style="fill:none;stroke:#000000;stroke-width:1px;stroke-linecap:butt;stroke-linejoin:miter;stroke-opacity:1;marker-end:url(#marker5308);display:inline"
       d="m 481.0485,691.9458 -24.39342,18.54706"
       id="path5610-9"
       inkscape:connector-curvature="0"
       sodipodi:nodetypes="cc" />
    <path
       style="fill:none;stroke:#000000;stroke-width:1px;stroke-linecap:round;stroke-linejoin:miter;stroke-opacity:1;marker-end:url(#marker5308);display:inline"
       d="m 456.00347,733.59319 29.90576,-35.63402"
       id="path5850-2"
       inkscape:connector-curvature="0"
       sodipodi:nodetypes="cc" />
    <path
       style="fill:none;stroke:#000000;stroke-width:1px;stroke-linecap:butt;stroke-linejoin:miter;stroke-opacity:1;marker-end:url(#Arrow2Mend);display:inline"
       d="m 477.89807,685.76715 c -7.45687,2.84728 -16.7349,0.62539 -16.68151,-5.7848 0.0645,-7.74427 7.42205,-8.62377 15.34436,-5.84983"
       id="path4772-4-3-2"
       inkscape:connector-curvature="0"
       sodipodi:nodetypes="csc" />
    <text
       xml:space="preserve"
       style="font-size:10px;font-style:normal;font-weight:normal;line-height:125%;letter-spacing:0px;word-spacing:0px;fill:#000000;fill-opacity:1;stroke:none;font-family:Bitstream Vera Sans"
       x="348.36224"
       y="367.50845"
       id="text6149"
       sodipodi:linespacing="125%"
       transform="translate(0,308.2677)"><tspan
         sodipodi:role="line"
         id="tspan6151"
         x="348.36224"
         y="367.50845">Watson</tspan></text>
    <text
       xml:space="preserve"
       style="font-size:10px;font-style:normal;font-weight:normal;line-height:125%;letter-spacing:0px;word-spacing:0px;fill:#000000;fill-opacity:1;stroke:none;font-family:Bitstream Vera Sans"
       x="348.36221"
       y="693.11365"
       id="text6153"
       sodipodi:linespacing="125%"><tspan
         sodipodi:role="line"
         id="tspan6155"
         x="348.36221"
         y="693.11365">Crick</tspan></text>
  </g>
</svg>
